# xmcd
#
# Track frame offsets:
#	150
#	10904
#	22545
#	34978
#	45780
#	59653
#	70468
#	84451
#	95665
#	107165
#	118543
#	131928
#	142891
#	152218
#	165769
#	177229
#	186481
#	198879
#	209600
#	221410
#	229770
#	241909
#	253804
#	264777
#	275145
#	287914
#	302237
#	313716
#	326689
#	336439
#
# Disc length: 4661 seconds
# Revision: 0
# Processed by: cddbd v1.5.2PL0 Copyright (c) Steve Scherf et al.
# Submitted via: dBpowerAMP V12.0
#
DISCID=bc12331e
DTITLE=Various Artist - The Odyssey - CD7 -  The 100 Club and Stafford Eras
DYEAR=2011
DGENRE=R&B
TTITLE0=Willie Tee - Please Don't Go
TTITLE1=The Metros - Since I Found My Baby
TTITLE2=Jackey Beavers - I Need My Baby
TTITLE3=The Seven Souls - I Still Love You
TTITLE4=The Originals - Suspicion
TTITLE5=Spencer Wiggins - Let's Talk It Over
TTITLE6=Carla Thomas - I'll Never Stop Loving You
TTITLE7=Lowell Fulsom - Talkin' Woman
TTITLE8=ZZ Hill - You Just Cheat And Lie
TTITLE9=Little Johnny Hamilton - Oh How I Love You
TTITLE10=Bobby Angelle - Too Much For You
TTITLE11=Jackie Day - Naughty Boy
TTITLE12=Mary Saxton - Losing Control
TTITLE13=Ty Karmin - You Really Made It Good To Me
TTITLE14=Temptones - Girl I Love You
TTITLE15=Lavern Baker - Wrapped Tied and Tangled
TTITLE16=Junior McCants - Try Me For Your New Love
TTITLE17=Melba Moore - Magic Touch
TTITLE18=Jack Montgomery - Dearly Beloved
TTITLE19=Damon Fox - Packing Up
TTITLE20=Frankie Beverly - Because Of My Heart
TTITLE21=Roy Hamilton - You Shook Me Up
TTITLE22=Tommy Ridgley - My Love Gets Stronger
TTITLE23=Johnny Maestro and The Crests - I'm Steppin' Out Of The Picture
TTITLE24=Gino Washington - Rat Race
TTITLE25=Sydney Joe Qualls - I Don't Do This (To Every Girl I Meet)
TTITLE26=Willie Tee - I'm Having So Much Fun
TTITLE27=Dee Dee Sharp - Deep Dark Secret
TTITLE28=Little Ann - What Should I Do
TTITLE29=The Precisions - Such Misery
EXTD=
EXTT0=
EXTT1=
EXTT2=
EXTT3=
EXTT4=
EXTT5=
EXTT6=
EXTT7=
EXTT8=
EXTT9=
EXTT10=
EXTT11=
EXTT12=
EXTT13=
EXTT14=
EXTT15=
EXTT16=
EXTT17=
EXTT18=
EXTT19=
EXTT20=
EXTT21=
EXTT22=
EXTT23=
EXTT24=
EXTT25=
EXTT26=
EXTT27=
EXTT28=
EXTT29=
PLAYORDER=
